<?xml version="1.0" encoding="utf-8"?>
<!-- Generator: Adobe Illustrator 21.1.0, SVG Export Plug-In . SVG Version: 6.00 Build 0)  -->
<svg version="1.1" id="Слой_1" xmlns="http://www.w3.org/2000/svg" xmlns:xlink="http://www.w3.org/1999/xlink" x="0px" y="0px"
	 viewBox="0 0 111.4 62.3" style="enable-background:new 0 0 111.4 62.3;" xml:space="preserve">
	<path fill="#4990E2" d="M40.7,23.6v3.3c-0.6,2.2-2,2.3-2.4,2.4h-6v6c-0.1,0.4-0.2,1.8-2.4,2.4h-3.3c-2.2-0.6-2.3-2-2.4-2.4v-6h-6
		c-0.4-0.1-1.8-0.2-2.4-2.4v-3.3c0.6-2.2,2-2.3,2.4-2.4h6v-6c0.1-0.2,0.1-0.5,0.3-0.9c0.3-0.5,0.9-1.1,2.1-1.4h3.3
		c2.2,0.6,2.3,2,2.4,2.4v6h6C38.8,21.3,40.2,21.4,40.7,23.6z M29.5,0C13.6-0.2,11.7,8.7,10.1,12.3l-9.6,36c-1.3,4.6,0.3,7.3,1,8.5
		c8.4,10.1,15.4,3.5,17.8,1.3l8.2-10.9c2.2-2.5,5-1.7,5.9-1.4c7.4,2.9,18.9,2.8,22.3,2.8c3.5,0,14.9,0.1,22.3-2.8
		c0.9-0.3,3.7-1,5.9,1.4l8.2,10.9c2.4,2.2,9.4,8.8,17.8-1.3c0.8-1.2,2.4-3.9,1-8.5l-9.6-36C99.8,8.7,97.8-0.1,82,0
		c-6.2-0.1-7.9,1.8-8.5,2.5c-1.5,2.9-3.7,3-4.5,3.1H55.8H42.5c-0.9-0.1-3.1-0.2-4.5-3.1C37.4,1.8,35.7-0.1,29.5,0L29.5,0z
		 M69.1,32.1c0-3,2.4-5.4,5.4-5.4c3,0,5.4,2.4,5.4,5.4c0,3-2.4,5.4-5.4,5.4C71.5,37.5,69.1,35,69.1,32.1z M82.7,23.7
		c-3,0-5.4-2.4-5.4-5.4c0-3,2.4-5.4,5.4-5.4c3,0,5.4,2.4,5.4,5.4C88.1,21.3,85.6,23.7,82.7,23.7z M90.4,37.4c-3,0-5.4-2.4-5.4-5.4
		c0-3,2.4-5.4,5.4-5.4c3,0,5.4,2.4,5.4,5.4C95.8,35,93.4,37.4,90.4,37.4z"/>
</svg>
