<?xml version="1.0" encoding="utf-8"?>
<!-- Generator: Adobe Illustrator 21.1.0, SVG Export Plug-In . SVG Version: 6.00 Build 0)  -->
<svg version="1.1" id="Слой_1" xmlns="http://www.w3.org/2000/svg" xmlns:xlink="http://www.w3.org/1999/xlink" x="0px" y="0px"
	 viewBox="0 0 67.2 65.5" style="enable-background:new 0 0 67.2 65.5;" xml:space="preserve">
  <path fill="#4990E2" d="M33,26.6c3.5,2.6-0.6,6.7-1.1,7.2c-1.1,0.9-2.2,0.3-2.6,0.1l-4.9-3.1c-1,5.7,3.3,9.8,7,9.6
     c2.2-0.3,3.6-0.9,5.5,0.3l24,24c2.3,2.2,8.9-0.5,5.2-5.8L42.6,35.7c-1.3-1.2-0.9-3.3-0.8-3.9c1.8-10.3-11.6-10-13-7.8L33,26.6z
      M63.4,64c-1.2,0-2.2-1-2.2-2.2s1-2.2,2.2-2.2c1.2,0,2.2,1,2.2,2.2S64.6,64,63.4,64z"/>
  <path fill="#4990E2" d="M19.4,21.2c2.3-2.9,9.9-9.2,20.9-3.8c3.6,1.7,10.8,9.4,7.4,18.9l6.5,6.3c1.6-3.1,2-4.9,2.2-5.5l5.3-1
     c0.6-0.1,2.2-0.4,2.3-2.1l-0.1-6.5c0-0.5-0.1-1.6-2.4-2l-5.4-0.8c-1.5-4.4-2.5-5.8-2.9-6.3l3.3-4.8c0.2-0.4,0.8-1.4,0-2.6
     l-4.5-4.3c-0.4-0.3-1.6-1.2-3-0.2L44,10.1c-3.4-2-5.7-2.4-6.5-2.5l-1.1-5.8c-0.1-0.5-0.5-1.8-2.2-1.9l-6.6,0.3
     c-1.6,0.2-1.9,1.2-2,1.6l-0.9,6.4c-4,0.9-5.4,2.1-6,2.6l-4.9-3.1c-1.6-1.1-2.7-0.2-3,0.1l-4.5,4.7c-0.8,0.9-0.2,2,0,2.5l3.8,4.9
     C8,24.4,7.8,26,7.7,26.5l-5.9,1C0.1,27.9,0,29.3,0,30l0.3,6.3c0.2,1.3,1.6,1.6,2,1.7l6,0.9c1.4,4.1,2.4,5.6,2.8,6.2l-3.3,5
     c-0.8,1.1-0.3,2.3,0.1,2.6l4.6,4.3c0.4,0.3,1.5,1.1,2.9,0.1l4.8-3.6c3.5,1.8,5.6,2.2,6.4,2.4l1.1,5.8c0.5,1.6,1.7,1.7,2.2,1.7
     l6.5-0.1c0.4-0.1,1.5-0.3,1.8-1.6l0.9-6.4c3.5-0.9,5.2-2.1,5.7-2.5l-6.2-6.1c-2.9,1-11.2,4-19.1-4.2
     C17.5,39.4,11.8,31.2,19.4,21.2L19.4,21.2z"/>
</svg>
